<mxfile host="65bd71144e">
    <diagram id="t0kPKC8hVvt2l_rSH3Cu" name="Page-1">
        <mxGraphModel dx="1456" dy="520" grid="1" gridSize="10" guides="1" tooltips="1" connect="1" arrows="1" fold="1" page="1" pageScale="1" pageWidth="850" pageHeight="1100" math="0" shadow="0">
            <root>
                <mxCell id="0"/>
                <mxCell id="1" parent="0"/>
                <mxCell id="13" style="edgeStyle=none;html=1;exitX=1;exitY=0.5;exitDx=0;exitDy=0;entryX=1;entryY=0.25;entryDx=0;entryDy=0;" edge="1" parent="1" source="5" target="11">
                    <mxGeometry relative="1" as="geometry"/>
                </mxCell>
                <mxCell id="2" value="App" style="ellipse" vertex="1" parent="1">
                    <mxGeometry x="380" y="120" width="80" height="30" as="geometry"/>
                </mxCell>
                <mxCell id="3" value="Header" style="rounded=1;" vertex="1" parent="1">
                    <mxGeometry x="325" y="250" width="80" height="30" as="geometry"/>
                </mxCell>
                <mxCell id="4" value="" style="curved=1;noEdgeStyle=1;orthogonal=1;" edge="1" source="2" target="3" parent="1">
                    <mxGeometry relative="1" as="geometry">
                        <Array as="points">
                            <mxPoint x="402.5" y="162"/>
                            <mxPoint x="365" y="238"/>
                        </Array>
                    </mxGeometry>
                </mxCell>
                <mxCell id="5" value="Plant page" style="rounded=1;" vertex="1" parent="1">
                    <mxGeometry x="435" y="250" width="80" height="30" as="geometry"/>
                </mxCell>
                <mxCell id="6" value="" style="curved=1;noEdgeStyle=1;orthogonal=1;" edge="1" source="2" target="5" parent="1">
                    <mxGeometry relative="1" as="geometry">
                        <Array as="points">
                            <mxPoint x="437.5" y="162"/>
                            <mxPoint x="475" y="238"/>
                        </Array>
                    </mxGeometry>
                </mxCell>
                <mxCell id="7" value="new plant form" style="rounded=1;" vertex="1" parent="1">
                    <mxGeometry x="250" y="380" width="120" height="30" as="geometry"/>
                </mxCell>
                <mxCell id="8" value="" style="curved=1;noEdgeStyle=1;orthogonal=1;" edge="1" source="5" target="7" parent="1">
                    <mxGeometry relative="1" as="geometry">
                        <Array as="points">
                            <mxPoint x="451.66666666666663" y="292"/>
                            <mxPoint x="310" y="368"/>
                        </Array>
                    </mxGeometry>
                </mxCell>
                <mxCell id="15" style="edgeStyle=none;html=1;exitX=0.75;exitY=0;exitDx=0;exitDy=0;entryX=0;entryY=0.75;entryDx=0;entryDy=0;" edge="1" parent="1" source="9" target="14">
                    <mxGeometry relative="1" as="geometry"/>
                </mxCell>
                <mxCell id="9" value="search" style="rounded=1;" vertex="1" parent="1">
                    <mxGeometry x="400" y="380" width="80" height="30" as="geometry"/>
                </mxCell>
                <mxCell id="10" value="" style="curved=1;noEdgeStyle=1;orthogonal=1;" edge="1" source="5" target="9" parent="1">
                    <mxGeometry relative="1" as="geometry">
                        <Array as="points">
                            <mxPoint x="475" y="294"/>
                            <mxPoint x="440" y="368"/>
                        </Array>
                    </mxGeometry>
                </mxCell>
                <mxCell id="11" value="Plant list" style="rounded=1;" vertex="1" parent="1">
                    <mxGeometry x="510" y="380" width="80" height="30" as="geometry"/>
                </mxCell>
                <mxCell id="12" value="" style="curved=1;noEdgeStyle=1;orthogonal=1;" edge="1" source="5" target="11" parent="1">
                    <mxGeometry relative="1" as="geometry">
                        <Array as="points">
                            <mxPoint x="498.33333333333337" y="292"/>
                            <mxPoint x="550" y="368"/>
                        </Array>
                    </mxGeometry>
                </mxCell>
                <mxCell id="14" value="send plant data" style="text;strokeColor=none;align=center;fillColor=none;html=1;verticalAlign=middle;whiteSpace=wrap;rounded=0;" vertex="1" parent="1">
                    <mxGeometry x="550" y="280" width="60" height="30" as="geometry"/>
                </mxCell>
                <mxCell id="16" value="filters plant data" style="text;strokeColor=none;align=center;fillColor=none;html=1;verticalAlign=middle;whiteSpace=wrap;rounded=0;" vertex="1" parent="1">
                    <mxGeometry x="405" y="420" width="60" height="30" as="geometry"/>
                </mxCell>
                <mxCell id="17" style="edgeStyle=none;html=1;exitX=0.75;exitY=0;exitDx=0;exitDy=0;entryX=0;entryY=0.75;entryDx=0;entryDy=0;" edge="1" parent="1" target="14">
                    <mxGeometry relative="1" as="geometry">
                        <mxPoint x="330" y="380" as="sourcePoint"/>
                        <mxPoint x="420" y="302.5" as="targetPoint"/>
                    </mxGeometry>
                </mxCell>
                <mxCell id="18" value="adds to plant data" style="text;strokeColor=none;align=center;fillColor=none;html=1;verticalAlign=middle;whiteSpace=wrap;rounded=0;" vertex="1" parent="1">
                    <mxGeometry x="280" y="420" width="60" height="30" as="geometry"/>
                </mxCell>
            </root>
        </mxGraphModel>
    </diagram>
</mxfile>